<svg xmlns="http://www.w3.org/2000/svg" xmlns:xlink="http://www.w3.org/1999/xlink" width="16" height="16" viewBox="0 0 16 16">
  <defs>
    <clipPath id="clip-path">
      <rect id="Rectangle_8405" data-name="Rectangle 8405" width="16" height="16" transform="translate(16 662)" stroke="#000" stroke-width="1"/>
    </clipPath>
  </defs>
  <g id="Mask_Group_669" data-name="Mask Group 669" transform="translate(-16 -662)" clip-path="url(#clip-path)">
    <g id="receipt-disscount" transform="translate(15.074 661.07)">
      <path id="Path_53012" data-name="Path 53012" d="M8.93,16.93A1.907,1.907,0,0,1,7.4,16.1l-.752-1a.751.751,0,0,0-1.213-.067l-.424-.372.409.38c-1.079,1.146-1.9,1.057-2.292.9s-1.079-.67-1.079-2.322V5.239C2.047,1.935,3,.93,6.117.93h5.619c3.118,0,4.071,1,4.071,4.309v8.38c0,1.645-.677,2.158-1.079,2.322s-1.213.246-2.292-.9a.8.8,0,0,0-.633-.275.818.818,0,0,0-.6.342l-.752,1a1.9,1.9,0,0,1-1.526.819ZM6.013,13.641h.1a1.92,1.92,0,0,1,1.421.789l.759,1a.752.752,0,0,0,1.287,0l.752-1a1.87,1.87,0,0,1,2.932-.156c.566.6.93.677,1.064.625.179-.074.372-.506.372-1.28V5.239c0-2.687-.469-3.193-2.954-3.193H6.117c-2.486,0-2.954.506-2.954,3.193v8.38c0,.781.193,1.213.372,1.28.134.052.5-.022,1.064-.625a1.947,1.947,0,0,1,1.414-.633Z" stroke="#000" stroke-width="0.2"/>
      <path id="Path_53013" data-name="Path 53013" d="M11.163,10.419a.744.744,0,1,1,.744-.744A.742.742,0,0,1,11.163,10.419Z" stroke="#000" stroke-width="0.2"/>
      <path id="Path_53014" data-name="Path 53014" d="M6.7,6.7a.744.744,0,1,1,.744-.744A.742.742,0,0,1,6.7,6.7Z" stroke="#000" stroke-width="0.2"/>
      <path id="Path_53015" data-name="Path 53015" d="M6.422,10.828a.552.552,0,0,1-.394-.164.561.561,0,0,1,0-.789l5.008-5.008a.558.558,0,0,1,.789.789L6.817,10.664A.528.528,0,0,1,6.422,10.828Z" stroke="#000" stroke-width="0.2"/>
    </g>
  </g>
</svg>
