<svg xmlns="http://www.w3.org/2000/svg" xmlns:xlink="http://www.w3.org/1999/xlink" width="17" height="17" viewBox="0 0 17 17">
  <defs>
    <clipPath id="clip-path">
      <rect id="Rectangle_8702" data-name="Rectangle 8702" width="17" height="17" transform="translate(65 287)" stroke="#707070" stroke-width="1"/>
    </clipPath>
  </defs>
  <g id="Mask_Group_671" data-name="Mask Group 671" transform="translate(-65 -287)" clip-path="url(#clip-path)">
    <path id="warehouse" d="M15.559,2.9,9.508.2A2.394,2.394,0,0,0,7.52.2L1.441,2.9A2.434,2.434,0,0,0,0,5.152V16.13a.713.713,0,0,0,.72.72.738.738,0,0,0,.72-.749V5.123A1,1,0,0,1,2.046,4.2L8.1,1.521a.984.984,0,0,1,.807,0L14.954,4.2a1,1,0,0,1,.605.922V16.1A.72.72,0,1,0,17,16.1V5.123A2.44,2.44,0,0,0,15.559,2.9Zm-3.6,2.824H5.042A1.869,1.869,0,0,0,3.169,7.6v8.5a.72.72,0,0,0,1.441,0V7.6a.443.443,0,0,1,.432-.432h6.915a.443.443,0,0,1,.432.432v8.5a.72.72,0,1,0,1.441,0V7.6A1.869,1.869,0,0,0,11.958,5.728ZM10.517,8.321H6.483a.72.72,0,1,0,0,1.441h4.034a.72.72,0,1,0,0-1.441Zm0,2.91H6.483a.72.72,0,0,0,0,1.441h4.034a.72.72,0,1,0,0-1.441Zm0,2.939H6.483a.72.72,0,0,0,0,1.441h4.034a.72.72,0,1,0,0-1.441Z" transform="translate(65 287.085)" stroke="#707070" stroke-width="0.407"/>
  </g>
</svg>
