<svg xmlns="http://www.w3.org/2000/svg" xmlns:xlink="http://www.w3.org/1999/xlink" width="20" height="20" viewBox="0 0 20 20">
  <defs>
    <clipPath id="clip-path">
      <rect id="Rectangle_8823" data-name="Rectangle 8823" width="20" height="20" transform="translate(27 445)" fill="#fff" stroke="#707070" stroke-width="1"/>
    </clipPath>
  </defs>
  <g id="Mask_Group_715" data-name="Mask Group 715" transform="translate(-27 -445)" clip-path="url(#clip-path)">
    <g id="note-2" transform="translate(25.852 443.835)">
      <path id="Path_53189" data-name="Path 53189" d="M14.709,18.774a7.332,7.332,0,0,1-.763-.037,10.085,10.085,0,0,1-1.6-.27l-1.563-.372c-4.289-1.014-5.694-3.284-4.689-7.564l.912-3.9a9.887,9.887,0,0,1,.744-2.2c1.6-3.3,4.661-3,6.838-2.493l1.554.363c2.177.512,3.554,1.321,4.326,2.558s.884,2.828.372,5.005l-.912,3.889c-.8,3.405-2.465,5.014-5.219,5.014Zm-2.5-15.751a3.216,3.216,0,0,0-3.2,2.019A9.457,9.457,0,0,0,8.364,6.95l-.912,3.9c-.828,3.517.13,5.052,3.647,5.889l1.563.372a9.587,9.587,0,0,0,1.4.233c2.531.251,3.786-.856,4.494-3.9l.912-3.889c.419-1.8.363-3.051-.2-3.954s-1.656-1.516-3.461-1.935L14.262,3.3a8.919,8.919,0,0,0-2.056-.279Z" fill="#292d32"/>
      <path id="Path_53190" data-name="Path 53190" d="M7.75,20.7c-2.391,0-3.917-1.433-4.894-4.456L1.665,12.569C.344,8.475,1.526,6.168,5.6,4.847l1.47-.474a9.7,9.7,0,0,1,1.172-.307.674.674,0,0,1,.688.26.722.722,0,0,1,.074.735,8.671,8.671,0,0,0-.633,1.9l-.912,3.9c-.828,3.517.13,5.052,3.647,5.889l1.563.372a9.587,9.587,0,0,0,1.4.233.716.716,0,0,1,.623.521.7.7,0,0,1-.279.754,9.2,9.2,0,0,1-2.363,1.088l-1.47.484a9.571,9.571,0,0,1-2.838.5ZM7.238,5.787l-1.2.391C2.717,7.247,1.926,8.81,3,12.141l1.191,3.675c1.079,3.321,2.642,4.121,5.963,3.051l1.47-.484c.056-.019.1-.037.158-.056l-.986-.233C6.5,17.081,5.1,14.811,6.1,10.531l.912-3.9c.065-.3.14-.586.223-.847Z" fill="#292d32"/>
      <path id="Path_53191" data-name="Path 53191" d="M16.272,9.778a1.271,1.271,0,0,1-.177-.019L11.583,8.615a.7.7,0,0,1,.344-1.349L16.439,8.41a.7.7,0,1,1-.167,1.368Z" fill="#292d32"/>
      <path id="Path_53192" data-name="Path 53192" d="M13.546,12.922a1.271,1.271,0,0,1-.177-.019l-2.707-.688a.7.7,0,0,1,.344-1.349l2.707.688a.7.7,0,0,1,.5.847A.677.677,0,0,1,13.546,12.922Z" fill="#292d32"/>
    </g>
  </g>
</svg>
